<svg id="visual" viewBox="0 0 900 450" width="900" height="450" xmlns="http://www.w3.org/2000/svg" xmlns:xlink="http://www.w3.org/1999/xlink" version="1.1"><path d="M0 289L21.5 285.3C43 281.7 86 274.3 128.8 269.3C171.7 264.3 214.3 261.7 257.2 249.5C300 237.3 343 215.7 385.8 203.7C428.7 191.7 471.3 189.3 514.2 203.5C557 217.7 600 248.3 642.8 266.5C685.7 284.7 728.3 290.3 771.2 284.8C814 279.3 857 262.7 878.5 254.3L900 246L900 451L878.5 451C857 451 814 451 771.2 451C728.3 451 685.7 451 642.8 451C600 451 557 451 514.2 451C471.3 451 428.7 451 385.8 451C343 451 300 451 257.2 451C214.3 451 171.7 451 128.8 451C86 451 43 451 21.5 451L0 451Z" fill="#f55151" stroke-linecap="round" stroke-linejoin="miter"></path></svg>