<svg id="visual" viewBox="0 0 900 450" width="900" height="450" xmlns="http://www.w3.org/2000/svg" xmlns:xlink="http://www.w3.org/1999/xlink" version="1.1"><path d="M0 283L18.8 285.7C37.7 288.3 75.3 293.7 112.8 287.2C150.3 280.7 187.7 262.3 225.2 247.7C262.7 233 300.3 222 337.8 208.8C375.3 195.7 412.7 180.3 450.2 176.3C487.7 172.3 525.3 179.7 562.8 197C600.3 214.3 637.7 241.7 675.2 244C712.7 246.3 750.3 223.7 787.8 216.5C825.3 209.3 862.7 217.7 881.3 221.8L900 226L900 451L881.3 451C862.7 451 825.3 451 787.8 451C750.3 451 712.7 451 675.2 451C637.7 451 600.3 451 562.8 451C525.3 451 487.7 451 450.2 451C412.7 451 375.3 451 337.8 451C300.3 451 262.7 451 225.2 451C187.7 451 150.3 451 112.8 451C75.3 451 37.7 451 18.8 451L0 451Z" fill="#67d0d0" stroke-linecap="round" stroke-linejoin="miter"></path></svg>